<svg width="21" height="20" viewBox="0 0 21 20" fill="none" xmlns="http://www.w3.org/2000/svg">
<path d="M6.33333 14.9998H14.6667V13.3332H6.33333V14.9998Z" fill="#6E7191"/>
<path d="M14.6667 11.6665H6.33333V9.99984H14.6667V11.6665Z" fill="#6E7191"/>
<path d="M6.33333 8.33317H9.66667V6.6665H6.33333V8.33317Z" fill="#6E7191"/>
<path fill-rule="evenodd" clip-rule="evenodd" d="M5.5 1.6665C4.11929 1.6665 3 2.78579 3 4.1665V15.8332C3 17.2139 4.11929 18.3332 5.5 18.3332H15.5C16.8807 18.3332 18 17.2139 18 15.8332V7.49984C18 4.27818 15.3883 1.6665 12.1667 1.6665H5.5ZM5.5 3.33317H11.3333V7.49984H16.3333V15.8332C16.3333 16.2934 15.9602 16.6665 15.5 16.6665H5.5C5.03976 16.6665 4.66667 16.2934 4.66667 15.8332V4.1665C4.66667 3.70627 5.03976 3.33317 5.5 3.33317ZM13 3.41652C14.3428 3.68909 15.4511 4.60738 15.9866 5.83317H13V3.41652Z" fill="#6E7191"/>
</svg>
